<svg width="96" height="96" xmlns="http://www.w3.org/2000/svg" xmlns:xlink="http://www.w3.org/1999/xlink" xml:space="preserve" overflow="hidden"><defs><clipPath id="clip0"><rect x="787" y="312" width="96" height="96"/></clipPath></defs><g clip-path="url(#clip0)" transform="translate(-787 -312)"><path d="M834.986 322C814.011 322 797.007 339.004 797.007 359.979 797.007 380.954 814.011 397.958 834.986 397.958 855.961 397.958 872.965 380.954 872.965 359.979 872.965 359.978 872.965 359.976 872.965 359.975 872.972 339.009 855.982 322.007 835.016 322 835.006 322 834.996 322 834.986 322ZM853.605 363.36 838.367 363.36 838.367 378.594 831.605 378.594 831.605 363.356 816.367 363.356 816.367 356.594 831.605 356.594 831.605 341.356 838.367 341.356 838.367 356.594 853.605 356.594Z"/></g></svg>