<svg width="96" height="96" xmlns="http://www.w3.org/2000/svg" xmlns:xlink="http://www.w3.org/1999/xlink" xml:space="preserve" overflow="hidden"><defs><clipPath id="clip0"><rect x="340" y="312" width="96" height="96"/></clipPath></defs><g clip-path="url(#clip0)" transform="translate(-340 -312)"><path d="M418 332 401 332 401 327C401 323.1 397.9 320 394 320L382 320C378.1 320 375 323.1 375 327L375 332 358 332C355.8 332 354 333.8 354 336L354 340 422 340 422 336C422 333.8 420.2 332 418 332ZM381 327C381 326.4 381.4 326 382 326L394 326C394.6 326 395 326.4 395 327L395 332 381 332 381 327Z"/><path d="M360 396C360 398.2 361.8 400 364 400L412 400C414.2 400 416 398.2 416 396L416 344 360 344 360 396ZM401 350 407 350 407 394 401 394 401 350ZM385 350 391 350 391 394 385 394 385 350ZM369 350 375 350 375 394 369 394 369 350Z"/></g></svg>