<svg width="96" height="96" xmlns="http://www.w3.org/2000/svg" xmlns:xlink="http://www.w3.org/1999/xlink" xml:space="preserve" overflow="hidden"><defs><clipPath id="clip0"><rect x="435" y="314" width="96" height="96"/></clipPath></defs><g clip-path="url(#clip0)" transform="translate(-435 -314)"><path d="M458 328 508 328 508 396 458 396 458 328ZM452 402 514 402 514 322 452 322 452 402Z" fill="#00B0F0"/><path d="M485 337 502 337 502 341 485 341Z" fill="#00B0F0"/><path d="M485 353 502 353 502 357 485 357Z" fill="#00B0F0"/><path d="M485 385 502 385 502 389 485 389Z" fill="#00B0F0"/><path d="M485 369 502 369 502 373 485 373Z" fill="#00B0F0"/><path d="M478.8 334.8 476 332 469.4 338.6 466.8 336 464 338.8 469.4 344.2Z" fill="#00B0F0"/><path d="M478.8 350.8 476 348 469.4 354.6 466.8 352 464 354.8 469.4 360.2Z" fill="#00B0F0"/><path d="M478.8 366.8 476 364 469.4 370.6 466.8 368 464 370.8 469.4 376.2Z" fill="#00B0F0"/><path d="M478.8 382.6 476 379.8 469.4 386.4 466.8 383.8 464 386.6 469.4 392Z" fill="#00B0F0"/></g></svg>