<svg width="32" height="32" xmlns="http://www.w3.org/2000/svg" xmlns:xlink="http://www.w3.org/1999/xlink" xml:space="preserve" overflow="hidden"><defs><clipPath id="clip0"><rect x="5" y="102" width="32" height="32"/></clipPath></defs><g clip-path="url(#clip0)" transform="translate(-5 -102)"><path d="M21 122C18.8 122 17 120.2 17 118 17 115.8 18.8 114 21 114 23.2 114 25 115.8 25 118 25 120.2 23.2 122 21 122ZM30 115.5C29.8 114.767 29.5 114.067 29.1333 113.433L29.9667 110.933 28.0667 109.033 25.5667 109.867C24.9 109.5 24.2 109.2 23.4667 109L22.3333 106.667 19.6667 106.667 18.5 109C17.7667 109.2 17.0667 109.5 16.4333 109.867L13.9333 109.033 12.0333 110.933 12.8667 113.433C12.5 114.1 12.2 114.8 12 115.533L9.66667 116.667 9.66667 119.333 12 120.5C12.2 121.233 12.5 121.933 12.8667 122.567L12.0333 125.067 13.9333 126.967 16.4333 126.133C17.1 126.5 17.8 126.8 18.5333 127L19.7 129.333 22.3667 129.333 23.5333 127C24.2667 126.8 24.9667 126.5 25.6 126.133L28.1 126.967 30 125.067 29.1667 122.567C29.5333 121.9 29.8333 121.2 30.0333 120.467L32.3667 119.3 32.3667 116.633 30 115.5Z" fill="#ADB9CA"/></g></svg>