<svg width="34" height="34" xmlns="http://www.w3.org/2000/svg" xmlns:xlink="http://www.w3.org/1999/xlink" xml:space="preserve" overflow="hidden"><defs><clipPath id="clip0"><rect x="4" y="209" width="34" height="34"/></clipPath></defs><g clip-path="url(#clip0)" transform="translate(-4 -209)"><path d="M30.9167 215.375C30.9167 216.94 26.4768 218.208 21 218.208 15.5232 218.208 11.0833 216.94 11.0833 215.375 11.0833 213.81 15.5232 212.542 21 212.542 26.4768 212.542 30.9167 213.81 30.9167 215.375Z" fill="#ADB9CA"/><path d="M28.0833 222.458C27.6583 222.458 27.375 222.175 27.375 221.75 27.375 221.325 27.6583 221.042 28.0833 221.042 28.5083 221.042 28.7917 221.325 28.7917 221.75 28.7917 222.175 28.5083 222.458 28.0833 222.458ZM21 219.625C15.5458 219.625 11.0833 218.35 11.0833 216.792L11.0833 222.458C11.0833 224.017 15.5458 225.292 21 225.292 26.4542 225.292 30.9167 224.017 30.9167 222.458L30.9167 216.792C30.9167 218.35 26.4542 219.625 21 219.625Z" fill="#ADB9CA"/><path d="M28.0833 229.542C27.6583 229.542 27.375 229.258 27.375 228.833 27.375 228.408 27.6583 228.125 28.0833 228.125 28.5083 228.125 28.7917 228.408 28.7917 228.833 28.7917 229.258 28.5083 229.542 28.0833 229.542ZM21 226.708C15.5458 226.708 11.0833 225.433 11.0833 223.875L11.0833 229.542C11.0833 231.1 15.5458 232.375 21 232.375 26.4542 232.375 30.9167 231.1 30.9167 229.542L30.9167 223.875C30.9167 225.433 26.4542 226.708 21 226.708Z" fill="#ADB9CA"/><path d="M28.0833 236.625C27.6583 236.625 27.375 236.342 27.375 235.917 27.375 235.492 27.6583 235.208 28.0833 235.208 28.5083 235.208 28.7917 235.492 28.7917 235.917 28.7917 236.342 28.5083 236.625 28.0833 236.625ZM21 233.792C15.5458 233.792 11.0833 232.517 11.0833 230.958L11.0833 236.625C11.0833 238.183 15.5458 239.458 21 239.458 26.4542 239.458 30.9167 238.183 30.9167 236.625L30.9167 230.958C30.9167 232.517 26.4542 233.792 21 233.792Z" fill="#ADB9CA"/></g></svg>