<svg width="34" height="35" xmlns="http://www.w3.org/2000/svg" xmlns:xlink="http://www.w3.org/1999/xlink" xml:space="preserve" overflow="hidden"><defs><clipPath id="clip0"><rect x="4" y="264" width="34" height="35"/></clipPath></defs><g clip-path="url(#clip0)" transform="translate(-4 -264)"><path d="M8.14583 4.95833 25.8542 4.95833 25.8542 29.0417 8.14583 29.0417 8.14583 4.95833ZM6.02083 31.1667 27.9792 31.1667 27.9792 2.83333 6.02083 2.83333 6.02083 31.1667Z" fill="#ADB9CA" transform="matrix(1 0 0 1.02941 4 264)"/><path d="M17.7083 8.14583 23.7292 8.14583 23.7292 9.5625 17.7083 9.5625Z" fill="#ADB9CA" transform="matrix(1 0 0 1.02941 4 264)"/><path d="M17.7083 13.8125 23.7292 13.8125 23.7292 15.2292 17.7083 15.2292Z" fill="#ADB9CA" transform="matrix(1 0 0 1.02941 4 264)"/><path d="M17.7083 25.1458 23.7292 25.1458 23.7292 26.5625 17.7083 26.5625Z" fill="#ADB9CA" transform="matrix(1 0 0 1.02941 4 264)"/><path d="M17.7083 19.4792 23.7292 19.4792 23.7292 20.8958 17.7083 20.8958Z" fill="#ADB9CA" transform="matrix(1 0 0 1.02941 4 264)"/><path d="M15.5125 7.36667 14.5208 6.375 12.1833 8.7125 11.2625 7.79167 10.2708 8.78333 12.1833 10.6958Z" fill="#ADB9CA" transform="matrix(1 0 0 1.02941 4 264)"/><path d="M15.5125 13.0333 14.5208 12.0417 12.1833 14.3792 11.2625 13.4583 10.2708 14.45 12.1833 16.3625Z" fill="#ADB9CA" transform="matrix(1 0 0 1.02941 4 264)"/><path d="M15.5125 18.7 14.5208 17.7083 12.1833 20.0458 11.2625 19.125 10.2708 20.1167 12.1833 22.0292Z" fill="#ADB9CA" transform="matrix(1 0 0 1.02941 4 264)"/><path d="M15.5125 24.2958 14.5208 23.3042 12.1833 25.6417 11.2625 24.7208 10.2708 25.7125 12.1833 27.625Z" fill="#ADB9CA" transform="matrix(1 0 0 1.02941 4 264)"/></g></svg>