<svg width="96" height="96" xmlns="http://www.w3.org/2000/svg" xmlns:xlink="http://www.w3.org/1999/xlink" xml:space="preserve" overflow="hidden"><defs><clipPath id="clip0"><rect x="693" y="312" width="96" height="96"/></clipPath></defs><g clip-path="url(#clip0)" transform="translate(-693 -312)"><path d="M769 330C769 334.418 756.464 338 741 338 725.536 338 713 334.418 713 330 713 325.582 725.536 322 741 322 756.464 322 769 325.582 769 330Z" fill="#00B0F0"/><path d="M761 350C759.8 350 759 349.2 759 348 759 346.8 759.8 346 761 346 762.2 346 763 346.8 763 348 763 349.2 762.2 350 761 350ZM741 342C725.6 342 713 338.4 713 334L713 350C713 354.4 725.6 358 741 358 756.4 358 769 354.4 769 350L769 334C769 338.4 756.4 342 741 342Z" fill="#00B0F0"/><path d="M761 370C759.8 370 759 369.2 759 368 759 366.8 759.8 366 761 366 762.2 366 763 366.8 763 368 763 369.2 762.2 370 761 370ZM741 362C725.6 362 713 358.4 713 354L713 370C713 374.4 725.6 378 741 378 756.4 378 769 374.4 769 370L769 354C769 358.4 756.4 362 741 362Z" fill="#00B0F0"/><path d="M761 390C759.8 390 759 389.2 759 388 759 386.8 759.8 386 761 386 762.2 386 763 386.8 763 388 763 389.2 762.2 390 761 390ZM741 382C725.6 382 713 378.4 713 374L713 390C713 394.4 725.6 398 741 398 756.4 398 769 394.4 769 390L769 374C769 378.4 756.4 382 741 382Z" fill="#00B0F0"/></g></svg>